HIERARCHY
ROOT Pelvis
{
	OFFSET 0.000000 0.000000 0.000000
	CHANNELS 6 Xposition Yposition Zposition Xrotation Yrotation Zrotation
	JOINT LeftUpLeg_virtual
	{
		OFFSET 0.000000 0.000000 0.000000
		CHANNELS 3 Xrotation Yrotation Zrotation
		JOINT LeftUpLeg
		{
			OFFSET 18.735201 -5.666702 -4.541200
			CHANNELS 3 Xrotation Yrotation Zrotation
			JOINT LeftLeg
			{
				OFFSET -0.021200 -31.938179 0.493100
				CHANNELS 3 Xrotation Yrotation Zrotation
				JOINT LeftFoot
				{
					OFFSET 0.021200 -31.938179 -4.336299
					CHANNELS 3 Xrotation Yrotation Zrotation
					JOINT LeftToeBase
					{
						OFFSET 0.943001 -26.722000 15.023500
						CHANNELS 3 Xrotation Yrotation Zrotation
						End Site
						{
							OFFSET 0 0 0
						}
					}
				}
			}
		}
	}
	JOINT RightUpLeg_virtual
	{
		OFFSET 0.000000 0.000000 0.000000
		CHANNELS 3 Xrotation Yrotation Zrotation
		JOINT RightUpLeg
		{
			OFFSET -18.735201 -5.666702 -4.541200
			CHANNELS 3 Xrotation Yrotation Zrotation
			JOINT RightLeg
			{
				OFFSET 0.018946 -31.938133 0.493100
				CHANNELS 3 Xrotation Yrotation Zrotation
				JOINT RightFoot
				{
					OFFSET -0.018946 -31.938126 -4.336299
					CHANNELS 3 Xrotation Yrotation Zrotation
					JOINT RightToeBase
					{
						OFFSET -0.943001 -26.722004 15.023500
						CHANNELS 3 Xrotation Yrotation Zrotation
						End Site
						{
							OFFSET 0 0 0
						}
					}
				}
			}
		}
	}
	JOINT Hips_virtual
	{
		OFFSET 0.000000 0.000000 0.000000
		CHANNELS 3 Xrotation Yrotation Zrotation
		JOINT Hips
		{
			OFFSET -0.000000 -0.000000 -0.000000
			CHANNELS 3 Xrotation Yrotation Zrotation
			JOINT Spine
			{
				OFFSET 0.000000 10.199997 -0.299500
				CHANNELS 3 Xrotation Yrotation Zrotation
				JOINT Spine1
				{
					OFFSET 0.000000 11.900002 -1.516600
					CHANNELS 3 Xrotation Yrotation Zrotation
					JOINT Spine2
					{
						OFFSET 0.000000 13.600006 -2.842500
						CHANNELS 3 Xrotation Yrotation Zrotation
						JOINT Neck_virtual
						{
							OFFSET 0.000000 0.000000 0.000000
							CHANNELS 3 Xrotation Yrotation Zrotation
							JOINT Neck
							{
								OFFSET 0.000000 9.624100 -2.890100
								CHANNELS 3 Xrotation Yrotation Zrotation
								JOINT Head
								{
									OFFSET 0.000000 14.068802 -1.351900
									CHANNELS 3 Xrotation Yrotation Zrotation
									End Site
									{
										OFFSET 0 0 0
									}
								}
							}
						}
						JOINT LeftShoulder_virtual
						{
							OFFSET 0.000000 0.000000 0.000000
							CHANNELS 3 Xrotation Yrotation Zrotation
							JOINT LeftShoulder
							{
								OFFSET 15.263000 10.923401 -0.547700
								CHANNELS 3 Xrotation Yrotation Zrotation
								JOINT LeftArm
								{
									OFFSET 25.438599 -2.830597 -13.032500
									CHANNELS 3 Xrotation Yrotation Zrotation
									JOINT LeftForeArm
									{
										OFFSET 29.960503 0.000000 0.000000
										CHANNELS 3 Xrotation Yrotation Zrotation
										JOINT LeftHand
										{
											OFFSET 27.849251 0.000000 0.000000
											CHANNELS 3 Xrotation Yrotation Zrotation
											End Site
											{
												OFFSET 0 0 0
											}
										}
									}
								}
							}
						}
						JOINT RightShoulder_virtual
						{
							OFFSET 0.000000 0.000000 0.000000
							CHANNELS 3 Xrotation Yrotation Zrotation
							JOINT RightShoulder
							{
								OFFSET -15.263000 10.923401 -0.547700
								CHANNELS 3 Xrotation Yrotation Zrotation
								JOINT RightArm
								{
									OFFSET -25.438599 -2.830597 -13.032500
									CHANNELS 3 Xrotation Yrotation Zrotation
									JOINT RightForeArm
									{
										OFFSET -29.960503 0.000000 0.000000
										CHANNELS 3 Xrotation Yrotation Zrotation
										JOINT RightHand
										{
											OFFSET -27.849251 0.000000 0.000000
											CHANNELS 3 Xrotation Yrotation Zrotation
											End Site
											{
												OFFSET 0 0 0
											}
										}
									}
								}
							}
						}
					}
				}
			}
		}
	}
}
MOTION
Frames: 12
Frame Time: 0.03333333
-3.916314 83.274208 2.332624 0.000000 0.000000 0.000000 3.004775 -58.203218 6.441629 -38.300760 6.320429 29.635409 47.031190 -9.811636 -10.643177 -10.044993 -1.887318 -11.913065 0.000000 0.000000 0.000000 3.004775 -58.203218 6.441629 -34.547797 -3.821297 -30.691797 55.034748 4.454003 -7.825886 -22.925130 0.235623 25.815673 0.000000 0.000000 0.000000 3.004775 -58.203218 6.441629 0.000000 0.000001 0.000000 11.191376 0.081150 -2.660804 8.434584 0.027672 -5.592321 0.000000 0.000000 0.000000 8.457028 0.027908 -5.591869 -3.775787 5.323446 1.581309 0.000000 0.000000 0.000000 8.457028 0.027908 -5.591869 -6.221633 -11.503840 -4.023759 -23.061627 9.569258 -36.639819 0.046367 -43.170959 -0.010989 0.000000 0.000000 0.000000 8.457028 0.027908 -5.591869 -5.488230 10.658247 2.466469 -41.473879 -26.755584 30.079033 -155.044256 68.137072 156.691206 0.000000 0.000000 0.000000 
-4.235466 83.263481 2.372814 0.000000 0.000000 0.000000 4.761421 -58.819096 8.576873 -37.940550 6.798284 28.954278 46.397311 -8.942246 -10.407555 -10.297644 -1.657051 -12.445721 0.000000 0.000000 0.000000 4.761421 -58.819096 8.576873 -35.665749 -2.821314 -30.912582 55.464333 4.525951 -7.827742 -23.102019 0.299488 25.800007 0.000000 0.000000 0.000000 4.761421 -58.819096 8.576873 0.000000 -0.000001 0.000000 10.572370 0.057822 -2.943327 7.278659 0.995587 -6.029101 0.000000 0.000000 0.000000 7.868293 0.668184 -5.886739 -3.593675 5.089025 0.903629 0.000000 0.000000 0.000000 7.868293 0.668184 -5.886739 -6.438874 -13.164617 -4.289223 -20.844404 7.515348 -36.011346 -0.375305 -40.249021 -0.284903 0.000000 0.000000 0.000000 7.868293 0.668184 -5.886739 -5.541682 9.386651 2.275661 -42.475529 -27.794012 27.164161 -157.196640 65.533739 159.109803 0.000000 0.000000 0.000000 
-4.936816 83.373772 2.477394 0.000000 0.000000 0.000000 6.505317 -60.058482 10.626203 -36.561968 7.348069 28.453033 45.544746 -7.743794 -10.033693 -11.058641 -1.099971 -13.441910 0.000000 0.000000 0.000000 6.505317 -60.058482 10.626203 -36.407371 -1.777723 -30.747183 55.510057 4.701969 -7.771916 -23.281741 0.565301 25.630975 0.000000 0.000000 0.000000 6.505317 -60.058482 10.626203 0.000000 -0.000001 0.000000 9.970807 0.040612 -3.214757 5.412856 1.778453 -6.941525 0.000000 0.000000 0.000000 6.233830 0.975659 -6.719547 -3.220903 4.844761 0.062835 0.000000 0.000000 0.000000 6.233830 0.975659 -6.719547 -6.702464 -14.957885 -4.571853 -18.021917 7.338828 -35.052555 -0.477859 -38.363311 -0.338793 0.000000 0.000000 0.000000 6.233830 0.975659 -6.719547 -5.596369 8.117647 2.079306 -42.075348 -29.071133 25.529891 -158.484199 63.364307 160.638468 0.000000 0.000000 0.000000 
-5.936477 83.593063 2.640808 0.000000 0.000000 0.000000 7.671679 -61.293558 11.981471 -34.539447 8.015843 28.209383 44.365709 -6.851854 -9.621017 -11.895447 -0.413058 -14.527247 0.000000 0.000000 0.000000 7.671679 -61.293558 11.981471 -36.154524 -0.998217 -30.273570 55.119179 4.561900 -7.671949 -23.647869 0.840693 25.530805 0.000000 0.000000 0.000000 7.671679 -61.293558 11.981471 0.000000 -0.000001 0.000000 9.401609 0.020978 -3.466008 3.106748 1.642270 -8.093142 0.000000 0.000000 0.000000 4.027168 1.010937 -7.900988 -2.842617 4.664524 -0.826806 0.000000 0.000000 0.000000 4.027168 1.010937 -7.900988 -6.970872 -16.475499 -4.859274 -16.573500 10.147439 -34.139461 -0.206052 -37.784685 -0.168408 0.000000 0.000000 0.000000 4.027168 1.010937 -7.900988 -5.673091 6.670776 1.984884 -39.956528 -30.758493 25.815263 -160.383797 59.930395 162.908645 0.000000 0.000000 0.000000 
-7.179019 83.899094 3.061966 0.000000 0.000000 0.000000 7.741713 -60.927104 12.121164 -32.885155 8.561987 28.344706 41.775042 -6.365107 -8.663064 -11.058272 -0.712258 -16.388750 0.000000 0.000000 0.000000 7.741713 -60.927104 12.121164 -38.379755 1.184597 -29.230980 59.005390 5.501711 -6.902444 -20.762493 1.819722 23.605760 0.000000 0.000000 0.000000 7.741713 -60.927104 12.121164 0.000000 0.000000 0.000000 8.970365 -0.003262 -3.601473 0.891126 1.532505 -9.429975 0.000000 0.000000 0.000000 1.674382 0.804719 -9.252079 -2.539910 4.560356 -1.564068 0.000000 0.000000 0.000000 1.674382 0.804719 -9.252079 -6.911204 -16.614266 -3.923256 -17.257282 10.437850 -33.348453 0.390004 -39.556976 0.205989 0.000000 0.000000 0.000000 1.674382 0.804719 -9.252079 -5.775050 5.551424 1.625785 -38.882477 -33.575728 26.148163 -161.829680 57.144692 164.636150 0.000000 0.000000 0.000000 
-8.868582 83.831093 3.232363 0.000000 0.000000 0.000000 7.609772 -59.886983 12.046797 -31.721502 8.881316 28.953746 39.771959 -6.553142 -7.949321 -10.614245 -1.306442 -18.137880 0.000000 0.000000 0.000000 7.609772 -59.886983 12.046797 -41.961011 4.766068 -28.835105 64.108736 7.963195 -6.142267 -14.643309 2.910937 24.037720 0.000000 0.000000 0.000000 7.609772 -59.886983 12.046797 0.000000 -0.000003 0.000000 8.640010 -0.038988 -3.773465 -0.867227 1.401978 -10.722893 0.000000 0.000000 0.000000 -0.313433 0.486435 -10.553398 -2.374978 4.492521 -1.938652 0.000000 0.000000 0.000000 -0.313433 0.486435 -10.553398 -6.765738 -15.999552 -2.425017 -18.520854 9.747024 -32.883693 1.425199 -42.350762 0.917477 0.000000 0.000000 0.000000 -0.313433 0.486435 -10.553398 -5.895348 4.784693 1.108773 -39.016318 -36.529020 25.948896 -162.986373 54.789756 166.013349 0.000000 0.000000 0.000000 
-11.146017 83.206200 3.020521 0.000000 0.000000 0.000000 7.467218 -58.387770 12.017932 -31.132351 8.833773 30.146085 38.943618 -7.541183 -7.699239 -11.054692 -1.922183 -19.644683 0.000000 0.000000 0.000000 7.467218 -58.387770 12.017932 -45.401131 9.071834 -29.149205 68.140440 11.268039 -5.654029 -6.178069 4.208086 28.039801 0.000000 0.000000 0.000000 7.467218 -58.387770 12.017932 0.000000 0.000001 0.000000 8.374616 -0.108859 -4.036118 -1.833101 1.182719 -11.772230 0.000000 0.000000 0.000000 -1.526813 0.087517 -11.605886 -2.204266 4.419263 -1.921652 0.000000 0.000000 0.000000 -1.526813 0.087517 -11.605886 -6.653873 -14.959629 -0.689956 -19.522822 9.032888 -32.675246 2.656760 -46.553026 1.886270 0.000000 0.000000 0.000000 -1.526813 0.087517 -11.605886 -6.030925 4.173770 0.513737 -40.404858 -38.913900 24.896069 -163.945796 52.732209 167.151832 0.000000 0.000000 0.000000 
-13.618145 82.726646 2.956009 0.000000 0.000000 0.000000 6.825059 -56.030777 11.337672 -30.747101 8.805918 31.357303 37.949723 -9.312656 -7.710829 -11.480495 -2.808174 -20.482767 0.000000 0.000000 0.000000 6.825059 -56.030777 11.337672 -46.277643 12.659574 -30.563570 66.330228 15.567038 -5.304059 7.096362 6.748768 36.596191 0.000000 0.000000 0.000000 6.825059 -56.030777 11.337672 0.000000 0.000000 0.000000 8.146453 -0.218354 -4.197529 -2.332209 0.661844 -12.558205 0.000000 0.000000 0.000000 -2.240094 -0.536339 -12.396344 -2.037484 4.399199 -1.859774 0.000000 0.000000 0.000000 -2.240094 -0.536339 -12.396344 -6.536156 -13.572441 1.239292 -20.188820 8.530333 -32.682158 -1.034016 -51.998199 -0.858158 0.000000 0.000000 0.000000 -2.240094 -0.536339 -12.396344 -6.175732 3.685866 -0.153539 -42.657943 -41.043785 23.221701 -164.787248 50.871666 168.140024 0.000000 0.000000 0.000000 
-16.338192 82.176514 2.885632 0.000000 0.000000 0.000000 6.275068 -53.474545 10.745569 -30.430139 8.763464 32.507780 37.078000 -11.503836 -7.622876 -12.210140 -3.449882 -21.352546 0.000000 0.000000 0.000000 6.275068 -53.474545 10.745569 -47.712150 15.492421 -30.560158 68.695167 18.172208 -5.707161 13.108315 8.633337 39.448772 0.000000 0.000000 0.000000 6.275068 -53.474545 10.745569 0.000000 0.000000 0.000000 7.990211 -0.359618 -4.262479 -2.751770 -0.097369 -13.141405 0.000000 0.000000 0.000000 -2.781012 -1.300072 -12.982324 -1.884656 4.398431 -1.792548 0.000000 0.000000 0.000000 -2.781012 -1.300072 -12.982324 -6.680641 -11.924400 2.218038 -20.517163 8.633656 -31.762043 -1.226243 -58.081306 -1.084689 0.000000 0.000000 0.000000 -2.781012 -1.300072 -12.982324 -6.323337 3.423916 -0.902434 -45.878002 -42.504578 20.709781 -165.508598 49.265383 168.972200 0.000000 0.000000 0.000000 
-19.132145 81.603111 2.876678 0.000000 0.000000 0.000000 6.204941 -51.414427 10.694733 -29.755357 8.904597 33.421734 35.956879 -13.373762 -7.295118 -13.107000 -3.658000 -22.572238 0.000000 0.000000 0.000000 6.204941 -51.414427 10.694733 -49.191422 18.056052 -30.605729 71.110766 20.197568 -6.225646 16.401492 9.761741 41.189876 0.000000 0.000000 0.000000 6.204941 -51.414427 10.694733 -0.000001 0.000003 0.000000 7.916581 -0.482065 -4.235716 -2.958629 -0.809230 -13.510477 0.000000 0.000000 0.000000 -3.032373 -1.963670 -13.351538 -1.811245 4.336499 -1.773223 0.000000 0.000000 0.000000 -3.032373 -1.963670 -13.351538 -6.780687 -10.083705 3.824147 -20.970197 9.676780 -31.627823 -1.102776 -63.678250 -1.032587 0.000000 0.000000 0.000000 -3.032373 -1.963670 -13.351538 -6.467687 3.473592 -1.735593 -49.998334 -42.848936 17.308090 -166.106867 47.971017 169.643239 0.000000 0.000000 0.000000 
-21.587412 81.138336 3.124174 0.000000 0.000000 0.000000 7.560112 -51.107867 12.257342 -27.758544 9.732272 33.641957 33.298511 -13.462568 -6.717998 -13.612803 -3.038622 -24.530852 0.000000 0.000000 0.000000 7.560112 -51.107867 12.257342 -52.052202 20.808777 -30.785046 73.116909 20.576466 -6.180690 15.291615 9.118013 40.220747 0.000000 0.000000 0.000000 7.560112 -51.107867 12.257342 0.000000 -0.000002 0.000000 8.060065 -0.461741 -3.892817 -2.628028 -1.143585 -13.585928 0.000000 0.000000 0.000000 -2.658047 -2.261042 -13.417758 -1.897452 4.145923 -1.995339 0.000000 0.000000 0.000000 -2.658047 -2.261042 -13.417758 -7.010444 -7.758840 6.082063 -22.464735 11.561100 -32.135668 0.090275 -67.442763 0.038938 0.000000 0.000000 0.000000 -2.658047 -2.261042 -13.417758 -6.606305 4.275087 -2.772681 -55.680675 -40.663132 12.455857 -166.525749 47.451588 170.044649 0.000000 0.000000 0.000000 
-23.943174 80.682663 3.381609 0.000000 0.000000 0.000000 8.850490 -50.866447 13.644654 -25.641736 10.639490 33.939750 30.346022 -13.300289 -6.221091 -13.884988 -2.574415 -26.475756 0.000000 0.000000 0.000000 8.850490 -50.866447 13.644654 -54.237600 23.082368 -31.081780 74.256778 19.638607 -6.172174 13.409697 7.497997 38.704298 0.000000 0.000000 0.000000 8.850490 -50.866447 13.644654 0.000000 -0.000001 0.000000 8.234191 -0.367110 -3.504306 -2.077643 -1.128126 -13.490412 0.000000 0.000000 0.000000 -2.108221 -2.239430 -13.323468 -2.028449 3.936501 -2.187537 0.000000 0.000000 0.000000 -2.108221 -2.239430 -13.323468 -7.370648 -5.769658 7.372296 -24.039344 13.227433 -32.058705 2.554057 -71.195877 2.373290 0.000000 0.000000 0.000000 -2.108221 -2.239430 -13.323468 -6.713371 5.191775 -4.080562 -61.331499 -38.389802 7.267250 -166.869759 47.139572 170.353223 0.000000 0.000000 0.000000 
